<?xml version="1.0" encoding="utf-8"?>
<!-- Generator: Adobe Illustrator 22.0.0, SVG Export Plug-In . SVG Version: 6.00 Build 0)  -->
<svg version="1.1" id="Layer_1" xmlns="http://www.w3.org/2000/svg" xmlns:xlink="http://www.w3.org/1999/xlink" x="0px" y="0px"
	 viewBox="0 0 106 50" style="enable-background:new 0 0 106 50;" xml:space="preserve">
<style type="text/css">
	.st0{fill:#333333;}
	.st1{fill:#60D2F4;}
	.st2{fill:#A045AD;}
	.st3{fill:#9744A5;}
</style>
<g>
	<path class="st0" d="M50.3243141,22.9036636l0.0221786-15.9061947h3.0486488v9.7204857l4.0427818-5.7439375h3.7112999
		l-4.3077202,5.9648237l4.59515,5.9648228h-3.9103127l-4.1311989-5.7439384v5.7439384H50.3243141z"/>
	<path class="st0" d="M62.5407715,22.9036636V10.9740171h2.6512375v2.9161768l-0.287117-0.375536
		c0.1546478-0.4125032,0.3604355-0.7880392,0.6185989-1.126914c0.2575455-0.3385677,0.5742416-0.6186018,0.9494629-0.8394871
		c0.2877426-0.1765232,0.6001205-0.314846,0.9389954-0.4140444c0.3388748-0.0995054,0.6888428-0.1620436,1.0492859-0.1879215
		c0.3610535-0.0255699,0.7221069-0.0166359,1.08255,0.0277262v2.8055801c-0.330864-0.1028948-0.71595-0.1380148-1.1540222-0.104743
		c-0.4380798,0.0329628-0.8342514,0.1343174-1.1873016,0.3037558c-0.3536606,0.1620436-0.6518707,0.3773832-0.8946304,0.646019
		c-0.2433701,0.2689438-0.427597,0.585639-0.5526733,0.9500837s-0.1879196,0.7751007-0.1879196,1.231657v6.0972939H62.5407715z"/>
	<path class="st0" d="M76.9666977,23.2351456c-1.2224197,0-2.2994232-0.2633991-3.2307129-0.7898884
		c-0.9319077-0.5264893-1.6608047-1.2516823-2.187294-2.1761971c-0.5264893-0.9238968-0.7898865-1.982729-0.7898865-3.1755695
		c0-1.3034382,0.2578583-2.437438,0.7732544-3.4023094c0.5153961-0.9645624,1.2261124-1.7137852,2.1318359-2.2476673
		c0.9060287-0.5338831,1.9479141-0.8009787,3.1262741-0.8009787c1.2516861,0,2.3157578,0.2948217,3.1922073,0.8838491
		c0.876152,0.5890265,1.5243225,1.4177313,1.9442215,2.4851885c0.4195938,1.0677652,0.5668488,2.3234529,0.4417725,3.7667532
		H79.397049v-1.1047325c0-1.215023-0.1934662-2.0893211-0.5800934-2.6232042
		c-0.3866272-0.5338821-1.0181656-0.8009777-1.89431-0.8009777c-1.0237122,0-1.7766342,0.3111486-2.2590714,0.9334478
		c-0.4821243,0.6222982-0.7233429,1.5409584-0.7233429,2.7559814c0,1.1121273,0.2412186,1.9716377,0.7233429,2.5791492
		c0.4824371,0.6075115,1.1912994,0.9112663,2.1265945,0.9112663c0.5890274,0,1.093338-0.1287727,1.513237-0.3866253
		c0.4195862-0.2575455,0.7399826-0.629385,0.9608688-1.1155167l3.0045853,0.8616676
		c-0.4491577,1.0899467-1.1580276,1.9368267-2.1262894,2.5406418C79.1740036,22.93293,78.1154861,23.2351456,76.9666977,23.2351456z
		 M73.0123291,17.778326v-2.2313395h7.9090424v2.2313395H73.0123291z"/>
	<path class="st0" d="M87.9462585,23.2351456c-0.8542709,0-1.5776215-0.1642017-2.1703415-0.4916782
		c-0.5930328-0.3274765-1.0421982-0.7658577-1.3478012-1.3145275c-0.305603-0.5483627-0.4584045-1.1543331-0.4584045-1.8169899
		c0-0.5523663,0.0847168-1.056675,0.254158-1.5132313c0.1694336-0.4565582,0.4436188-0.8598194,0.8228455-1.2094784
		c0.3792343-0.3496571,0.8893967-0.6426296,1.5298691-0.8783016c0.4420776-0.1617365,0.9682617-0.3056049,1.5797806-0.4306803
		c0.6112061-0.1250763,1.3034363-0.244915,2.076683-0.3592081c0.7732544-0.113986,1.6235275-0.2409096,2.5514297-0.3810806
		l-1.0825577,0.5967283c0-0.7070169-0.1694336-1.2261124-0.5080032-1.5575943
		c-0.3388748-0.3314819-0.9057236-0.4972229-1.7011566-0.4972229c-0.4417648,0-0.9020233,0.1069002-1.3807602,0.3203917
		c-0.4787369,0.2137995-0.8136063,0.5930319-1.0052261,1.1376972L84.3896103,13.97861
		c0.3019028-0.9867439,0.8687515-1.7895708,1.701149-2.4081726c0.8320923-0.6186008,1.966095-0.9279022,3.4020004-0.9279022
		c1.0529785,0,1.9882736,0.1620445,2.8058929,0.4861326c0.8173065,0.3240881,1.4359055,0.8835402,1.8554916,1.6789732
		c0.235672,0.4417706,0.3755417,0.8835402,0.419899,1.3256187c0.0440521,0.4417706,0.0662384,0.9352961,0.0662384,1.4799614
		v7.2904425h-2.6290588V20.451437l0.3755341,0.5080051c-0.5816345,0.8028278-1.2094727,1.3829193-1.8832245,1.7399712
		C89.8297882,23.0564651,88.9773636,23.2351456,87.9462585,23.2351456z M88.5870438,20.8713341
		c0.5523605,0,1.0178528-0.0976563,1.3973923-0.2929726c0.3792343-0.1950073,0.6811447-0.4177399,0.9057236-0.6681995
		c0.2245865-0.2501526,0.377388-0.4599476,0.4584045-0.6296921c0.1546555-0.3237801,0.244606-0.7011642,0.2704849-1.1321526
		c0.0258789-0.4306793,0.0388184-0.7898884,0.0388184-1.0770073l0.8835373,0.2208843
		c-0.8909302,0.1475658-1.6124268,0.270792-2.1647949,0.3699913c-0.5523682,0.0995064-0.9981384,0.1897697-1.3367081,0.270792
		c-0.3388748,0.0810223-0.637085,0.1694374-0.8946304,0.2649384c-0.2945175,0.1179905-0.5320358,0.244915-0.7125626,0.3813896
		c-0.1805267,0.1361656-0.3129959,0.2852707-0.3977203,0.4473152c-0.0847168,0.1620445-0.1269226,0.3422642-0.1269226,0.5412769
		c0,0.2723312,0.0680847,0.506155,0.2042542,0.7011623c0.1361618,0.1953163,0.329628,0.3444214,0.5800934,0.4476242
		C87.9425583,20.8198872,88.2407684,20.8713341,88.5870438,20.8713341z"/>
	<path class="st0" d="M97.2912064,17.0934906v-2.3197565h8.5421295v2.3197565H97.2912064z"/>
	<path class="st0" d="M50.3609734,33.1765175V30.85676h8.4835892v2.3197575H50.3609734z M58.8445625,42.7864075
		c-0.8250046,0.1546478-1.6333771,0.2227325-2.4248047,0.2042465c-0.7917366-0.0184822-1.4984474-0.1583443-2.1207466-0.4195862
		c-0.6222954-0.2612419-1.0954895-0.682991-1.4195786-1.2649307c-0.2945137-0.5446663-0.4491615-1.0988808-0.4636421-1.6623383
		c-0.0150948-0.5634575-0.0221825-1.2020836-0.0221825-1.9164925V27.5428677h3.0045929v10.0076046
		c0,0.4639511,0.0052376,0.882,0.0163269,1.2538414c0.0110931,0.3718376,0.0865669,0.6681976,0.2264328,0.8890839
		c0.2652473,0.419899,0.6885338,0.6481781,1.2704735,0.6848373c0.5816345,0.0369682,1.2261124,0.0077019,1.9331284-0.0881081
		V42.7864075z"/>
	<path class="st0" d="M61.7160721,29.1999683v-2.6512375h3.0045929v2.6512375H61.7160721z M61.7160721,42.7864075V30.85676
		h3.0045929v11.9296474H61.7160721z"/>
	<path class="st0" d="M71.2597275,42.7864075L66.929512,30.85676h3.0045929l2.8277664,8.2623997l2.8277588-8.2623997h3.0045929
		l-4.3302155,11.9296474H71.2597275z"/>
	<path class="st0" d="M80.560318,42.7864075V30.85676h2.673111v3.9543667h0.3755341v7.9752808H80.560318z M88.7124252,42.7864075
		v-5.6333427c0-0.2723312-0.0150986-0.6204491-0.0443649-1.0440445c-0.0295715-0.4232864-0.121376-0.8484192-0.2760239-1.2757111
		c-0.1546555-0.4269829-0.4069595-0.7843437-0.7566223-1.0714645c-0.3499603-0.287117-0.8450317-0.4306793-1.4858093-0.4306793
		c-0.2578583,0-0.5338821,0.0403595-0.8283997,0.1213799c-0.2945099,0.0810242-0.5708466,0.2375221-0.828392,0.4694977
		c-0.2578583,0.2319756-0.4694977,0.5727005-0.6352386,1.021553c-0.165741,0.4494743-0.2486115,1.0458946-0.2486115,1.7895699
		l-1.7230301-0.8173027c0-0.9426918,0.1913147-1.8262329,0.5742416-2.6512375
		c0.3829269-0.8243942,0.9593277-1.4910526,1.7288818-1.9990578c0.7692413-0.5083141,1.7396622-0.7621613,2.9106293-0.7621613
		c0.9349899,0,1.6971512,0.1583462,2.2864838,0.4747334c0.5890274,0.3166943,1.0474319,0.7181072,1.3752213,1.2042408
		c0.3274765,0.4858208,0.5613022,0.9922867,0.7014694,1.5187759c0.1395569,0.5264893,0.2242737,1.0070763,0.2538452,1.441452
		c0.0295792,0.4346848,0.0443649,0.7510719,0.0443649,0.9497757v6.6940231H88.7124252z"/>
	<path class="st0" d="M99.780098,43.1178894c-1.2005463,0-2.2535248-0.2689438-3.1592484-0.8065262
		c-0.9057159-0.5372696-1.6108856-1.2794075-2.1151962-2.2257957c-0.5046158-0.9460754-0.7569275-2.0341759-0.7569275-3.2639847
		c0-1.2442894,0.2578583-2.3397789,0.7732544-3.2861671c0.5153961-0.9460793,1.2261124-1.6845188,2.1318359-2.2147045
		c0.9060287-0.5301857,1.9479141-0.795433,3.1262817-0.795433c1.2002335,0,2.2550583,0.2689438,3.1644745,0.8065243
		c0.9094238,0.5375786,1.6182861,1.2794075,2.1266022,2.2257957c0.5080032,0.9460793,0.7621613,2.0341759,0.7621613,3.2639847
		c0,1.2372055-0.2560043,2.3289986-0.7677078,3.2750778c-0.5120087,0.9463844-1.2227249,1.686367-2.1321411,2.2202492
		C102.0240631,42.8507919,100.9729385,43.1178894,99.780098,43.1178894z M99.780098,40.3120003
		c0.9645615,0,1.6845169-0.3256302,2.1592484-0.9775009c0.4750443-0.6515656,0.7125626-1.4892044,0.7125626-2.5129166
		c0-1.0603714-0.2412186-1.9072533-0.7233429-2.5406418c-0.4824371-0.6330795-1.1986923-0.9497757-2.148468-0.9497757
		c-0.655571,0-1.1931534,0.1472588-1.6127396,0.4417725c-0.419899,0.2945137-0.7310486,0.7033195-0.9334488,1.2261124
		c-0.202713,0.5227928-0.3037567,1.1303024-0.3037567,1.8225327c0,1.0677643,0.2412186,1.9164963,0.7233429,2.5461884
		C98.1359329,39.9971542,98.8447952,40.3120003,99.780098,40.3120003z"/>
</g>
<g>
	<path class="st1" d="M7.8275137,25.2031593l0.0025902-0.0030079l-0.0025902-0.003006l0.0201688-0.0173836l7.0036073,9.861208
		L14.8964138,7.45858c0-3.9567773-3.2075977-7.1643748-7.1643748-7.1643748H7.7320256
		c-3.9567776,0-7.1643748,3.2075973-7.1643748,7.1643748v35.270813c0,3.9567719,3.2075973,7.1643753,7.1643748,7.1643753H7.732039
		c3.9567771,0,7.1643748-3.2076035,7.1643748-7.1643753v-9.3311195l-7.0487313-8.1777306L7.8275137,25.2031593z"/>
	<path class="st2" d="M26.7470093,25.2001343l10.779541-12.5061035c2.583313-2.9970703,2.2479248-7.520874-0.7492065-10.104248
		c-2.9970703-2.583313-7.520874-2.2478638-10.104187,0.7492065L14.8964233,17.0020142l-7.0487671,8.1777344l-0.0201416,0.017395
		l0.0025635,0.0029907L7.8275146,25.203125l0.0201416,0.017395l7.0487671,8.1777344l11.763855,13.6481323
		c2.7196045,3.1551514,7.5472412,3.3338623,10.4926758,0.3884277h0.000061
		c2.6525269-2.6525269,2.8098145-6.9020386,0.3607178-9.7434692L26.7470093,25.2001343z"/>
</g>
<polygon class="st3" points="7.8476825,25.1797619 7.8275137,25.1971455 7.8301039,25.2001514 7.8275137,25.2031593 
	7.8476825,25.2205429 14.8964138,33.3982735 14.8964138,17.0020294 "/>
</svg>
